<?xml version="1.0" encoding="UTF-8" standalone="no"?>
<!DOCTYPE svg PUBLIC "-//W3C//DTD SVG 1.1//EN" "http://www.w3.org/Graphics/SVG/1.1/DTD/svg11.dtd">
<svg version="1.1" xmlns="http://www.w3.org/2000/svg" xmlns:xlink="http://www.w3.org/1999/xlink"
     preserveAspectRatio="xMidYMid meet" viewBox="0 0 640 640" width="640" height="640">
    <path d="M567.01 253.62C561.18 231.83 552.63 211.25 541.62 192.15C545.17 187.64 573.58 151.53 577.13 147.02C582.55 140.08 581.94 129.36 575.67 123.11C569.78 117.22 522.7 70.12 516.81 64.23C510.62 58.01 499.87 57.34 492.9 62.77C488.38 66.33 452.21 94.77 447.69 98.33C428.67 87.32 408.09 78.77 386.36 72.99C385.67 67.27 380.2 21.58 379.52 15.87C378.47 7.14 370.41 0 361.6 0C353.28 0 286.67 0 278.35 0C269.54 0 261.48 7.14 260.45 15.87C259.77 21.58 254.28 67.27 253.59 72.99C231.83 78.8 211.23 87.37 192.21 98.36C187.69 94.8 151.54 66.4 147.02 62.85C140.11 57.42 129.36 58.06 123.14 64.28C117.25 70.17 70.14 117.3 64.26 123.19C58.06 129.38 57.42 140.13 62.87 147.1C66.42 151.61 94.81 187.74 98.36 192.26C87.35 211.3 78.8 231.91 72.99 253.7C67.28 254.38 21.61 259.85 15.9 260.53C7.17 261.55 0 269.62 0 278.45C0 286.78 0 353.38 0 361.7C0 370.51 7.14 378.52 15.9 379.6C21.61 380.28 67.3 385.77 73.01 386.46C78.85 408.17 87.37 428.75 98.38 447.79C94.83 452.32 66.45 488.48 62.9 493C57.5 499.94 58.11 510.67 64.36 516.91C70.24 522.81 117.26 569.93 123.14 575.82C129.36 582.02 140.11 582.71 147.02 577.28C151.54 573.72 187.71 545.25 192.23 541.7C211.28 552.7 231.86 561.28 253.62 567.07C254.31 572.77 259.79 618.44 260.48 624.15C261.53 632.91 269.57 640.03 278.37 640.03C286.7 640.03 353.3 640.03 361.63 640.03C370.46 640.03 378.5 632.91 379.52 624.15C380.21 618.44 385.69 572.77 386.38 567.07C408.17 561.23 428.75 552.68 447.77 541.7C452.29 545.25 488.46 573.65 492.98 577.2C499.92 582.63 510.64 581.99 516.86 575.77C522.75 569.88 569.83 522.75 575.72 516.86C581.96 510.67 582.6 499.92 577.15 492.93C573.6 488.41 545.17 452.29 541.62 447.77C552.65 428.72 561.18 408.14 567.01 386.41C572.72 385.72 618.39 380.23 624.1 379.55C632.86 378.5 640 370.51 640 361.65C640 353.33 640 286.72 640 278.4C640.03 269.54 632.91 261.53 624.13 260.48C612.71 259.11 572.73 254.31 567.01 253.62ZM160.03 320C160.03 231.63 231.65 160 320.03 160C408.4 160 480.03 231.63 480.03 320C480.03 408.37 408.42 480 320.03 480C231.65 480 160.03 408.37 160.03 320Z"
          id="gear" opacity="1" fill="#000000" fill-opacity="1"></path>
</svg>