<?xml version="1.0" encoding="UTF-8" standalone="no"?>
<!DOCTYPE svg PUBLIC "-//W3C//DTD SVG 1.1//EN" "http://www.w3.org/Graphics/SVG/1.1/DTD/svg11.dtd">
<svg version="1.1" xmlns="http://www.w3.org/2000/svg" xmlns:xlink="http://www.w3.org/1999/xlink"
     preserveAspectRatio="xMidYMid meet" viewBox="0 0 640 640" width="640" height="640">
    <path d="M0 281.84C0 437.26 126.44 563.69 281.84 563.69C437.26 563.69 563.69 437.26 563.69 281.84C563.69 126.44 437.26 0 281.84 0C126.44 0 0 126.44 0 281.84ZM52.03 281.84C52.03 155.13 155.13 52.03 281.84 52.03C408.56 52.03 511.65 155.13 511.65 281.84C511.65 408.56 408.56 511.65 281.84 511.65C155.13 511.65 52.03 408.56 52.03 281.84Z"
          id="adjksRzjM" opacity="1" fill="#afafaa" fill-opacity="1"></path>
    <path d="M483.22 446.43C473.05 436.27 456.59 436.27 446.43 446.43C436.27 456.59 436.27 473.06 446.43 483.22C461.35 498.13 580.67 617.46 595.59 632.38C600.67 637.46 607.32 640 613.98 640C620.63 640 627.29 637.46 632.38 632.38C642.54 622.22 642.54 605.74 632.38 595.59C602.55 565.76 498.13 461.35 483.22 446.43Z"
          id="b5xd3Bjsm" opacity="1" fill="#afafaa" fill-opacity="1"></path>
</svg>